<?xml version="1.0" encoding="UTF-8"?>
<svg id="_圖層_1" data-name="圖層_1" xmlns="http://www.w3.org/2000/svg" version="1.1" viewBox="0 0 591.12 88.13">
  <!-- Generator: Adobe Illustrator 29.5.0, SVG Export Plug-In . SVG Version: 2.1.0 Build 137)  -->
  <defs>
    <style>
      .st0 {
        fill: #00a174;
      }

      .st1 {
        fill: #e95f1d;
      }
    </style>
  </defs>
  <g>
    <path class="st1" d="M335.46,4.34c-.42,1.23-1.53,1.98-3.31,1.89-2.89,8.3-6.28,16.04-10.1,22.83l5.35,2.27c-.25.85-1.02,1.51-2.63,1.7v52.37c-.09.66-3.4,2.64-6.54,2.64h-1.53v-50.48c-3.23,4.62-6.71,8.68-10.44,12.17l-1.1-.85c7.3-11.7,14.77-30.1,18.68-48.5l11.63,3.96ZM376.97,73.79s5.77,5,9.34,8.59c-.25,1.04-1.1,1.51-2.38,1.51h-55.69l-.68-2.74h23.34v-29.25h-18.42l-.68-2.74h19.1v-24.16h-20.63l-.68-2.74h40.66l5.01-6.89s5.52,4.72,8.91,8.11c-.25,1.04-1.1,1.51-2.38,1.51h-22.33v24.16h10.19l4.5-6.51s5.35,4.53,8.4,7.74c-.17,1.04-1.02,1.51-2.21,1.51h-20.88v29.25h12.31l5.18-7.36ZM344.29,1.23c24.45,4.15,19.86,22.55,11.46,17.46-2.04-5.85-7.72-12.64-12.22-16.7l.76-.75Z"/>
    <path class="st1" d="M435.14,24.34c-2.29.75-4.84,1.51-7.47,2.26-1.02,12.27-3.14,24.25-7.64,34.63,15.28,11.13,8.74,20,2.97,16.23-1.61-2.83-3.99-5.94-6.71-8.96-4.75,7.83-11.37,14.44-20.46,19.63l-.93-1.04c7.81-6.32,13.33-14.15,17.15-22.93-4.84-4.62-10.19-9.06-14.77-12.17,1.36-4.62,2.89-11.7,4.33-19.06l-2.55.47c-.51,1.23-1.44,1.89-2.38,2.08l-2.29-9.81c2.21,0,5.18,0,8.57-.19,1.78-9.91,3.31-19.72,3.82-25.48l10.78,2.17c-.34,1.04-.85,1.98-3.4,2.17-.76,5.19-2.12,12.64-3.65,20.57,2.97-.19,6.11-.38,9.42-.66.17-3.4.17-6.98.17-10.38l11.38,2.27c-.34,1.42-1.36,2.26-3.31,2.45-.08,1.7-.17,3.3-.25,5,2.38-.28,4.67-.47,7.05-.75l.17,1.51ZM414.51,57.65c2.97-8.96,4.5-18.87,5.18-28.87-3.23.85-6.71,1.7-10.53,2.55-1.53,7.45-3.31,15.1-5.01,21.23,4.08,1.7,7.47,3.4,10.36,5.09ZM466.63,35.38s5.18,4.62,8.23,7.93c-.25,1.04-1.1,1.51-2.29,1.51h-18.42v31.99c0,6.42-1.19,10.29-10.87,11.32-.25-2.83-.68-5-1.95-6.42-1.27-1.42-3.23-2.45-7.22-3.11v-1.32s8.66.66,10.44.66c1.36,0,1.78-.47,1.78-1.7v-31.42h-16.98l-.68-2.74h17.66v-15.66l5.86.66c2.63-4.43,5.52-10.76,7.38-15.1h-27.59l-.76-2.74h28.52l4.67-5.1,7.98,8.11c-.68.75-1.61.94-3.48,1.04-3.65,3.87-9.42,9.91-14.52,14.06l2.72.28c-.17,1.32-1.02,2.17-2.97,2.45v11.98h7.89l4.58-6.7Z"/>
    <path class="st1" d="M554.52,12.55c-.59.76-1.78,1.51-3.48,1.98v69.16c-.17.75-4.16,3.02-7.3,3.02h-1.36v-8.21h-36.16v5.38c0,1.23-3.23,3.49-6.88,3.49h-1.44V5.94l9,4.15h34.64l4.33-5.19,8.66,7.64ZM506.21,12.83v29.53h36.16V12.83h-36.16ZM542.38,75.77v-30.67h-36.16v30.67h36.16Z"/>
    <path class="st1" d="M578.48,74.45c0-3.77,2.8-7.08,6.37-7.08s6.28,3.3,6.28,7.08-2.8,6.89-6.28,6.89-6.37-3.11-6.37-6.89ZM590.53,15.76c0,4.34-1.02,12.83-2.89,27.08l-1.53,14.91h-2.72l-1.53-14.91c-1.87-14.25-2.89-22.74-2.89-27.08s2.29-6.89,5.86-6.89,5.69,2.36,5.69,6.89Z"/>
  </g>
  <g>
    <path class="st0" d="M10.44,42.46c0-12.93-.34-20.57-.51-23.21-.43-5.47-1.53-7.46-7.89-7.46-1.02,0-1.53-.66-1.53-1.32s.42-1.23,1.27-1.23h26.74c.85,0,1.27.57,1.27,1.23s-.51,1.32-1.61,1.32c-6.45,0-6.54,1.89-7.22,7.46-.34,2.64-.51,10.28-.51,23.02v12.93c0,6.7.17,14.44.51,17.08.51,4.15,3.4,6.32,8.07,6.32,8.49,0,15.11-6.51,17.83-16.7.25-1.04.85-1.51,1.36-1.51.59,0,1.02.47,1.02,1.23,0,1.7-3.4,16.32-3.91,18.12-.25,1.04-1.1,1.7-2.04,1.7H1.27c-.85,0-1.27-.57-1.27-1.13,0-.66.51-1.42,1.61-1.42,6.62,0,7.89-2.26,8.32-7.83.17-2.64.51-9.34.51-22.36v-6.23Z"/>
    <path class="st0" d="M76.24,48.78c0,12.74.17,19.63.51,22.27.68,5.66,2.21,7.83,8.41,7.83,1.1,0,1.61.76,1.61,1.42,0,.57-.42,1.13-1.27,1.13h-28.44c-.85,0-1.27-.57-1.27-1.13,0-.66.51-1.42,1.61-1.42,6.62,0,7.89-2.26,8.32-7.83.17-2.64.51-9.34.51-22.36v-6.23c0-12.93-.34-20.57-.51-23.21-.42-5.47-1.53-7.46-7.89-7.46-1.02,0-1.53-.66-1.53-1.32s.42-1.23,1.27-1.23h26.74c.85,0,1.27.57,1.27,1.23s-.51,1.32-1.61,1.32c-6.45,0-6.54,1.89-7.22,7.46-.34,2.64-.51,10.28-.51,23.02v6.51Z"/>
    <path class="st0" d="M111.06,9.25c.68,0,1.02.19,1.27.57l38.37,51.99v-23.12c0-11.42-.34-17.46-.51-19.72-.34-5-1.95-7.17-7.98-7.17-.93,0-1.36-.66-1.36-1.32,0-.57.34-1.23,1.1-1.23h20.97c.68,0,1.1.57,1.1,1.13,0,.66-.51,1.42-1.44,1.42-5.52,0-6.62,2.17-7.3,7.17-.34,2.27-.59,8.3-.59,19.53v42.46c0,1.23-.68,1.89-1.44,1.89-.51,0-.93-.28-1.36-.85l-42.11-57.27v27.74c0,11.42.09,16.23.34,18.68.59,5,2.89,7.83,9,7.83.93,0,1.44.66,1.44,1.32,0,.57-.42,1.13-1.19,1.13h-22.75c-.68,0-1.1-.57-1.1-1.13,0-.66.51-1.32,1.44-1.32,6.11,0,7.89-2.27,8.32-7.17.17-2.26.42-7.26.42-18.87V19.34l-2.46-3.77c-1.7-2.55-3.4-3.77-6.37-3.77-.68,0-1.1-.66-1.1-1.32s.34-1.23,1.19-1.23h14.09Z"/>
    <path class="st0" d="M180.6,42.46c0-12.93-.34-20.57-.51-23.21-.42-5.47-1.44-7.46-7.81-7.46-1.02,0-1.53-.75-1.53-1.42,0-.57.42-1.13,1.27-1.13h26.66c.85,0,1.27.66,1.27,1.23,0,.66-.51,1.32-1.53,1.32-5.94,0-6.62,1.89-7.3,7.46-.34,2.64-.42,10.28-.42,23.02v11.98c0,14.34,5.26,22.83,16.64,22.83,12.99,0,19.02-8.49,19.02-21.51v-12.64c0-12.93-.34-20.19-.51-22.83-.42-5.57-1.1-8.3-7.89-8.3-1.02,0-1.53-.66-1.53-1.32,0-.57.42-1.23,1.27-1.23h20.54c.85,0,1.27.57,1.27,1.13,0,.66-.51,1.42-1.61,1.42-6.28,0-6.62,2.64-7.22,8.3-.25,2.64-.51,9.91-.51,22.65v12.27c0,17.36-7.13,27.36-24.7,27.36-15.19,0-24.87-7.74-24.87-27.55v-12.36Z"/>
    <path class="st0" d="M263.89,78.69c5.35,0,12.99-2.83,12.99-12.83,0-13.68-29.2-18.59-29.2-39.16,0-14.06,10.19-18.87,20.46-18.87,5.09,0,10.19,1.23,14.01,3.02.59.38.93.85.93,1.89v15.38c0,.94-.59,1.51-1.27,1.51s-1.36-.57-1.36-1.7c-.09-9.25-6.28-16.42-13.58-16.42-6.28,0-10.02,3.59-10.02,11.61,0,16.32,28.35,19.25,28.35,38.12,0,15.66-10.36,21.14-21.31,21.14-5.26,0-10.78-1.32-15.19-3.3-.85-.38-1.02-1.32-1.1-2.83-.17-2.83-1.02-14.53-1.02-15.38,0-1.04.59-1.42,1.1-1.42s1.02.28,1.27,1.13c3.48,12.17,7.55,18.12,14.94,18.12Z"/>
  </g>
</svg>